#N canvas 72 22 1299 682 10;
#X obj 422 62 adc~, f 5;
#X obj 1072 52 tgl 15 0 empty empty empty 17 7 0 10 -262144 -1 -1 1
1;
#X text 1017 50 (on/off);
#X obj 665 126 tgl 15 0 empty empty empty 17 7 0 10 -262144 -1 -1 1
1;
#X text 684 125 (on/off);
#X obj 1010 35 loadbang;
#X text 878 60 FFT & MORE ANALYSIS;
#X obj 665 103 loadbang;
#X text 422 41 :: AUDIO SOURCE ::;
#X obj 917 290 km_osc_format /pitch;
#X obj 879 311 km_osc_format /attack;
#X obj 994 248 km_osc_format /amp;
#X obj 1033 226 km_osc_format /rawAmp;
#X obj 956 269 km_osc_format /rawPitch;
#X obj 879 79 karmaFiddle;
#X obj 422 152 karmaAubio;
#X obj 52 182 karmaBalance;
#X obj 195 172 karmaAudioOut;
#X obj 317 172 km_metronom;
#X obj 324 351 bng 15 250 50 0 empty empty empty 17 7 0 10 -262144
-1 -1;
#X obj 54 112 karmaDSP;
#X obj 54 20 cnv 15 220 80 empty empty empty 20 12 0 14 -191407 -66577
0;
#X text 65 45 Make sure to run this with;
#X text 64 77 Needs pd-Aubio 0.3 or later.;
#X text 64 27 :: karmaSoundAnalyser ::;
#X text 64 61 Pd-Vanilla 0.47-0-64bit or later.;
#X obj 91 298 km_osc_format /balance/ampR;
#X obj 52 319 km_osc_format /balance/ampL;
#X obj 130 277 km_osc_format /balance/pan;
#X obj 324 372 s metronom/tick;
#X obj 317 394 s metronom/tickNum;
#X obj 337 330 s metronom/accent;
#X obj 359 306 s metronom/cycles;
#X obj 380 282 s metronom/BPM;
#X obj 543 358 km_osc_format /aubio/isQuiet;
#X obj 513 380 km_osc_format /aubio/isPlaying;
#X obj 452 424 km_osc_format /aubio/tempo;
#X obj 482 402 km_osc_format /aubio/tempoAlt;
#X obj 573 337 km_osc_format /aubio/pitch;
#X obj 604 316 km_osc_format /aubio/zcr;
#X obj 52 394 karmaOSCNative;
#X text 54 521 Use either [karmaOSCNative] or [karmaOSCMrPeach];
#X obj 422 446 km_osc_format /aubio/attack;
#X obj 665 276 km_osc_format /aubio/steadyState;
#X obj 634 296 km_osc_format /aubio/transients;
#X text 432 134 AUBIO;
#X obj 1072 205 km_osc_format /fiddle/silence;
#X connect 0 0 14 0;
#X connect 0 0 15 0;
#X connect 0 0 16 0;
#X connect 0 0 17 0;
#X connect 0 1 14 1;
#X connect 0 1 15 1;
#X connect 0 1 16 1;
#X connect 0 1 17 1;
#X connect 1 0 14 2;
#X connect 3 0 15 2;
#X connect 5 0 1 0;
#X connect 7 0 3 0;
#X connect 14 0 10 0;
#X connect 14 1 9 0;
#X connect 14 2 13 0;
#X connect 14 3 11 0;
#X connect 14 4 12 0;
#X connect 14 5 46 0;
#X connect 15 0 42 0;
#X connect 15 1 18 0;
#X connect 15 1 36 0;
#X connect 15 2 37 0;
#X connect 15 3 35 0;
#X connect 15 4 34 0;
#X connect 15 5 38 0;
#X connect 15 6 39 0;
#X connect 15 7 44 0;
#X connect 15 8 43 0;
#X connect 16 0 27 0;
#X connect 16 1 26 0;
#X connect 16 2 28 0;
#X connect 18 0 19 0;
#X connect 18 0 30 0;
#X connect 18 1 31 0;
#X connect 18 2 32 0;
#X connect 18 3 33 0;
#X connect 19 0 29 0;
