#N canvas 82 22 1238 632 10;
#X obj 99 273 adc~;
#X obj 34 173 tgl 15 0 empty empty empty 17 7 0 10 -262144 -1 -1 0
1;
#X obj 19 290 *~;
#X obj 19 338 dac~;
#X obj 185 510 loadbang;
#X obj 100 46 bng 15 250 50 0 empty empty empty 0 -6 0 10 -262144 -1
-1;
#X msg 100 84 \; pd dsp 1;
#X msg 33 85 \; pd dsp 0;
#X obj 33 48 bng 15 250 50 0 empty empty empty 0 -6 0 10 -262144 -1
-1;
#X text 31 15 Turn On/Off Pd.DSP;
#X text 176 484 OSC SERVER CONFIGURATION;
#X floatatom 825 137 5 0 0 0 - - -, f 5;
#X floatatom 824 158 5 0 0 0 - - -, f 5;
#X floatatom 824 181 5 0 0 0 - - -, f 5;
#X floatatom 824 202 5 0 0 0 - - -, f 5;
#X floatatom 823 226 5 0 0 0 - - -, f 5;
#X floatatom 823 247 5 0 0 0 - - -, f 5;
#X floatatom 823 271 5 0 0 0 - - -, f 5;
#X floatatom 823 292 5 0 0 0 - - -, f 5;
#X floatatom 824 316 5 0 0 0 - - -, f 5;
#X floatatom 825 337 5 0 0 0 - - -, f 5;
#X obj 37 212 hsl 100 15 0 1 0 0 0 ¸áÿ¿» 0 0 0 0 4 -262144 -1
-1 0 0;
#X obj 771 428 r silence;
#X obj 771 320 r fft5p;
#X obj 771 299 r fft5a;
#X obj 771 275 r fft4p;
#X obj 771 254 r fft4a;
#X obj 771 230 r fft3p;
#X obj 771 209 r fft3a;
#X obj 771 185 r fft2p;
#X obj 771 164 r fft2a;
#X obj 772 141 r fft1p;
#X obj 772 120 r fft1a;
#X text 379 38 - - - - - - - - - - - - - - - - - - - - - - - - - -
- - - -;
#X text 19 493 - - - - - - - - - - - - - - - - - - - - - - - - - -
;
#X text 739 38 - - - - - - - - - - - - - - - - - - - - - - - - - -
- - - -;
#X obj 771 449 r fiddle_pitch;
#X obj 771 471 r fiddle_attack;
#X obj 771 492 r fiddle_amp;
#X obj 320 252 tgl 15 0 empty empty empty 17 7 0 10 -262144 -1 -1 1
1;
#X text 265 250 (on/off);
#X obj 909 445 tgl 15 0 empty empty empty 17 7 0 10 -262144 -1 -1 0
1;
#X floatatom 893 466 5 0 0 0 - - -, f 5;
#X obj 771 537 r fiddle_raw_pitch;
#X floatatom 893 554 5 0 0 0 - - -, f 5;
#X floatatom 891 509 5 0 0 0 - - -, f 5;
#X floatatom 892 531 5 0 0 0 - - -, f 5;
#X obj 908 488 bng 15 250 50 0 empty empty empty 17 7 0 10 -262144
-1 -1;
#X obj 1162 488 + 1;
#X floatatom 1131 513 5 0 0 0 - - -, f 5;
#X obj 380 130 r aubio_pitch;
#X obj 380 153 r aubio_quiet;
#X obj 771 514 r fiddle_raw_amp;
#X obj 143 319 tgl 15 0 empty empty empty 17 7 0 10 -262144 -1 -1 1
1;
#X text 162 318 (on/off);
#X obj 496 170 tgl 15 0 empty empty empty 17 7 0 10 -262144 -1 -1 0
1;
#X obj 380 200 r aubio_tempo_bis;
#X obj 498 217 bng 15 250 50 0 empty empty empty 17 7 0 10 -262144
-1 -1;
#X obj 380 246 r aubio_bpm;
#X floatatom 481 263 5 0 0 0 - - -, f 5;
#X obj 380 223 r aubio_tempo;
#X obj 498 240 bng 15 250 50 0 empty empty empty 17 7 0 10 -262144
-1 -1;
#X obj 380 269 r aubio_onset;
#X obj 498 286 bng 15 250 50 0 empty empty empty 17 7 0 10 -262144
-1 -1;
#X floatatom 44 234 5 0 0 0 - - -, f 5;
#X floatatom 480 308 5 0 0 0 - - -, f 5;
#X obj 379 291 r aubio_zcr;
#X text 378 49 All analysed data is routed to OSC messages in this
section;
#X text 378 102 :: LIB AUBIO ROUTING ::;
#X text 56 172 On/Off;
#X obj 258 235 loadbang;
#X msg 185 540 connect localhost 12000;
#X obj 21 623 tgl 15 0 empty empty empty 17 7 0 10 -262144 -1 -1 0
1;
#X obj 21 538 spigot;
#X text 42 622 UDP State;
#X text 198 270 FFT & MORE ANALYSIS;
#X obj 143 296 loadbang;
#X obj 76 536 spigot;
#X obj 109 469 tgl 15 0 empty empty empty 17 7 0 10 -262144 -1 -1 0
1;
#X obj 76 559 print;
#X floatatom 480 147 5 0 0 0 - - -, f 5;
#X text 127 468 Print Output to Console;
#X text 740 28 Todo: - http://forumnet.ircam.fr/product/antescofo/?lang=en
;
#X obj 380 177 r aubio_is_playing;
#X obj 497 194 tgl 15 0 empty empty empty 17 7 0 10 -262144 -1 -1 1
1;
#N canvas 775 308 450 300 clean_signal 0;
#X obj 51 133 ==;
#X obj 93 116 f;
#X floatatom 102 139 5 0 0 0 - - -, f 5;
#X text 24 10 SIGNAL CLEANER;
#X obj 51 68 inlet float;
#X obj 51 156 sel 0;
#X obj 93 163 outlet float;
#X text 25 24 Prevents resending bangs when the float value has not
changed. (Sort of flood filter);
#X connect 0 0 5 0;
#X connect 1 0 0 1;
#X connect 1 0 2 0;
#X connect 1 0 6 0;
#X connect 4 0 1 1;
#X connect 4 0 0 0;
#X connect 5 0 1 0;
#X restore 147 407 pd clean_signal;
#X text 135 621 Many OSC optimisation todo here \, frequency and packing
stuff. See resample.pd and sendmany-osc.pd;
#X text 184 42 Make sure to run this with;
#X obj 21 601 netsend -u -b;
#X obj 68 385 env~;
#X obj 68 407 / 127;
#X obj 106 385 env~;
#X obj 106 407 / 127;
#X obj 88 429 -;
#X text 153 338 LIB AUBIO ANALYSIS SECTION;
#X obj 118 429 * 3;
#X obj 21 643 s osc_status;
#X obj 21 510 r osc_out_raw;
#X obj 1131 488 i 0;
#X obj 1006 113 tgl 15 0 empty empty empty 17 7 0 10 -262144 -1 -1
0 1;
#X text 954 111 Enabled;
#X obj 672 117 tgl 15 0 empty empty empty 17 7 0 10 -262144 -1 -1 1
1;
#X obj 1129 445 tgl 15 0 empty empty empty 17 7 0 10 -262144 -1 -1
1 1;
#X msg 185 560 connect 192.168.0.11 12000;
#X obj 672 71 loadbang;
#X obj 672 94 i 1;
#X obj 1006 67 loadbang;
#X obj 1006 89 i 0, f 4;
#X text 1038 90 Disabled by default;
#X text 1041 105 (Heavy CPU process);
#X obj 1129 402 loadbang;
#X obj 1129 423 i 1;
#X text 770 98 :: FIDDLE FFT ROUTING ::;
#X text 770 406 :: FIDDLE :: [pitch \, attack \, silence \, amplitude]
ROUTING;
#X obj 150 387 hsl 128 15 -1 1 0 0 empty empty empty -2 -8 0 10 -262144
-1 -1 0 1;
#X obj 379 313 r aubio_noisy;
#X obj 497 330 tgl 15 0 empty empty empty 17 7 0 10 -262144 -1 -1 0
1;
#X text 147 366 :: BALANCE ::;
#X text 99 252 :: AUDIO SOURCE ::;
#X text 31 153 :: SOUND OUTPUT CONFIGURATION ::;
#X text 20 484 :: OSC ROUTING ::;
#X text 378 23 :: ROUTING ::;
#X text 188 99 Needs pd-Aubio 0.4+;
#X text 56 193 Volume Control;
#X obj 877 137 km_osc_format /fft/1/a;
#X text 397 397 Listen for re-connection..;
#X obj 399 456 oscparse;
#X msg 399 415 listen 12001;
#X obj 399 435 netreceive -u -b 12001;
#X obj 459 499 bng 15 250 50 0 empty empty empty 17 7 0 10 -262144
-1 -1;
#X msg 185 583 disconnect;
#X msg 595 418 listen 0;
#X obj 399 547 bng 15 250 50 0 empty empty empty 17 7 0 10 -262144
-1 -1;
#X obj 399 498 route km;
#X obj 399 477 list trim;
#X text 481 499 Unrecognized command received;
#X text 497 415 Disconnects -->;
#X obj 399 523 route reconnectKMSA;
#X obj 531 523 route ping;
#X msg 531 544 bang;
#X obj 565 545 bng 15 250 50 0 empty empty empty 17 7 0 10 -262144
-1 -1;
#X obj 147 429 km_osc_format /balance;
#X obj 877 158 km_osc_format /fft/1/p;
#X obj 877 181 km_osc_format /fft/2/a;
#X obj 876 202 km_osc_format /fft/2/p;
#X obj 876 226 km_osc_format /fft/3/a;
#X obj 875 247 km_osc_format /fft/3/p;
#X obj 875 271 km_osc_format /fft/4/a;
#X obj 874 292 km_osc_format /fft/4/p;
#X obj 874 316 km_osc_format /fft/5/a;
#X obj 873 337 km_osc_format /fft/5/p;
#X obj 930 445 km_osc_format /silence;
#X obj 931 466 km_osc_format /pitch;
#X obj 930 488 km_osc_format /attack;
#X obj 930 509 km_osc_format /amp;
#X obj 931 531 km_osc_format /rawAmp;
#X obj 933 554 km_osc_format /rawPitch;
#X obj 525 147 km_osc_format /aubio/pitch;
#X obj 525 170 km_osc_format /aubio/quiet;
#X obj 526 194 km_osc_format /aubio/playing;
#X obj 525 217 km_osc_format /aubio/tempoBis;
#X obj 525 240 km_osc_format /aubio/tempo;
#X obj 525 263 km_osc_format /aubio/bpm;
#X obj 525 286 km_osc_format /aubio/onSet;
#X obj 525 308 km_osc_format /aubio/zcr;
#X obj 525 330 km_osc_format /aubio/noisy;
#X obj 531 566 km_osc_format /ping;
#X text 183 58 Pd-Vanilla 0.47-1 64bit;
#X obj 257 290 karmaFiddle;
#X obj 98 338 karmaAubio;
#X connect 0 0 2 0;
#X connect 0 0 89 0;
#X connect 0 0 168 0;
#X connect 0 0 169 0;
#X connect 0 1 2 0;
#X connect 0 1 91 0;
#X connect 0 1 168 1;
#X connect 0 1 169 1;
#X connect 1 0 21 0;
#X connect 2 0 3 0;
#X connect 2 0 3 1;
#X connect 4 0 71 0;
#X connect 5 0 6 0;
#X connect 8 0 7 0;
#X connect 21 0 2 1;
#X connect 21 0 64 0;
#X connect 22 0 41 0;
#X connect 22 0 151 0;
#X connect 23 0 20 0;
#X connect 23 0 150 0;
#X connect 24 0 19 0;
#X connect 24 0 149 0;
#X connect 25 0 18 0;
#X connect 25 0 148 0;
#X connect 26 0 17 0;
#X connect 26 0 147 0;
#X connect 27 0 16 0;
#X connect 27 0 146 0;
#X connect 28 0 15 0;
#X connect 28 0 145 0;
#X connect 29 0 14 0;
#X connect 29 0 144 0;
#X connect 30 0 13 0;
#X connect 30 0 143 0;
#X connect 31 0 12 0;
#X connect 31 0 142 0;
#X connect 32 0 11 0;
#X connect 36 0 42 0;
#X connect 36 0 152 0;
#X connect 37 0 47 0;
#X connect 37 0 98 0;
#X connect 37 0 153 0;
#X connect 38 0 45 0;
#X connect 38 0 154 0;
#X connect 39 0 168 2;
#X connect 43 0 44 0;
#X connect 43 0 156 0;
#X connect 48 0 98 1;
#X connect 50 0 80 0;
#X connect 50 0 157 0;
#X connect 51 0 55 0;
#X connect 51 0 158 0;
#X connect 52 0 46 0;
#X connect 52 0 155 0;
#X connect 53 0 169 2;
#X connect 56 0 57 0;
#X connect 56 0 160 0;
#X connect 58 0 59 0;
#X connect 58 0 162 0;
#X connect 60 0 61 0;
#X connect 60 0 161 0;
#X connect 62 0 63 0;
#X connect 62 0 163 0;
#X connect 66 0 65 0;
#X connect 66 0 164 0;
#X connect 70 0 39 0;
#X connect 71 0 88 0;
#X connect 72 0 73 1;
#X connect 72 0 96 0;
#X connect 73 0 88 0;
#X connect 76 0 53 0;
#X connect 77 0 79 0;
#X connect 78 0 77 1;
#X connect 83 0 84 0;
#X connect 83 0 159 0;
#X connect 85 0 141 0;
#X connect 88 0 72 0;
#X connect 89 0 90 0;
#X connect 90 0 93 0;
#X connect 91 0 92 0;
#X connect 92 0 93 1;
#X connect 93 0 95 0;
#X connect 95 0 114 0;
#X connect 97 0 77 0;
#X connect 97 0 73 0;
#X connect 98 0 48 0;
#X connect 98 0 49 0;
#X connect 99 0 124 1;
#X connect 99 0 142 1;
#X connect 99 0 143 1;
#X connect 99 0 144 1;
#X connect 99 0 145 1;
#X connect 99 0 146 1;
#X connect 99 0 147 1;
#X connect 99 0 148 1;
#X connect 99 0 149 1;
#X connect 99 0 150 1;
#X connect 101 0 157 1;
#X connect 101 0 158 1;
#X connect 101 0 159 1;
#X connect 101 0 160 1;
#X connect 101 0 161 1;
#X connect 101 0 162 1;
#X connect 101 0 163 1;
#X connect 101 0 164 1;
#X connect 101 0 165 1;
#X connect 102 0 151 1;
#X connect 102 0 152 1;
#X connect 102 0 153 1;
#X connect 102 0 154 1;
#X connect 102 0 155 1;
#X connect 102 0 156 1;
#X connect 103 0 88 0;
#X connect 104 0 105 0;
#X connect 105 0 101 0;
#X connect 106 0 107 0;
#X connect 107 0 99 0;
#X connect 110 0 111 0;
#X connect 111 0 102 0;
#X connect 114 0 85 0;
#X connect 115 0 116 0;
#X connect 115 0 165 0;
#X connect 126 0 134 0;
#X connect 127 0 128 0;
#X connect 128 0 126 0;
#X connect 130 0 88 0;
#X connect 131 0 128 0;
#X connect 133 0 137 0;
#X connect 133 0 138 0;
#X connect 133 1 129 0;
#X connect 134 0 133 0;
#X connect 137 0 132 0;
#X connect 137 0 71 0;
#X connect 138 0 139 0;
#X connect 138 0 140 0;
#X connect 139 0 166 0;
