#N canvas 17 22 1299 682 10;
#X obj 492 62 adc~, f 5;
#X obj 1142 52 tgl 15 0 empty empty empty 17 7 0 10 -262144 -1 -1 1
1;
#X text 1087 50 (on/off);
#X obj 735 126 tgl 15 0 empty empty empty 17 7 0 10 -262144 -1 -1 1
1;
#X text 754 125 (on/off);
#X obj 1080 35 loadbang;
#X text 948 60 FFT & MORE ANALYSIS;
#X obj 735 103 loadbang;
#X text 492 41 :: AUDIO SOURCE ::;
#X obj 949 79 karmaFiddle;
#X obj 492 152 karmaAubio;
#X obj 52 182 karmaBalance;
#X obj 195 172 karmaAudioOut;
#X obj 404 571 bng 15 250 50 0 empty empty empty 17 7 0 10 -262144
-1 -1;
#X obj 54 112 karmaDSP;
#X obj 54 20 cnv 15 220 80 empty empty empty 20 12 0 14 -191407 -66577
0;
#X text 65 45 Make sure to run this with;
#X text 64 77 Needs pd-Aubio 0.3 or later.;
#X text 64 27 :: karmaSoundAnalyser ::;
#X text 64 61 Pd-Vanilla 0.47-0-64bit or later.;
#X obj 91 298 km_osc_format /balance/ampR;
#X obj 52 319 km_osc_format /balance/ampL;
#X obj 130 277 km_osc_format /balance/pan;
#X obj 613 358 km_osc_format /aubio/isQuiet;
#X obj 583 380 km_osc_format /aubio/isPlaying;
#X obj 522 424 km_osc_format /aubio/tempo;
#X obj 552 402 km_osc_format /aubio/tempoAlt;
#X obj 643 337 km_osc_format /aubio/pitch;
#X obj 674 316 km_osc_format /aubio/zcr;
#X obj 52 394 karmaOSCNative;
#X text 54 521 Use either [karmaOSCNative] or [karmaOSCMrPeach];
#X obj 735 276 km_osc_format /aubio/steadyState;
#X obj 704 296 km_osc_format /aubio/transients;
#X text 502 134 AUBIO;
#X obj 1142 205 km_osc_format /fiddle/silence;
#X obj 1103 226 km_osc_format /fiddle/rawAmp;
#X obj 1064 248 km_osc_format /fiddle/amp;
#X obj 1026 269 km_osc_format /fiddle/rawPitch;
#X obj 987 290 km_osc_format /fiddle/pitch;
#X obj 949 311 km_osc_format /fiddle/attack;
#X obj 472 522 s /metronom/BPM;
#X obj 447 546 s /metronom/cycles;
#X obj 422 570 s /metronom/accent;
#X obj 404 593 s /metronom/tick;
#X obj 397 616 s /metronom/tickNum;
#X text 53 537 karmaOSCMrPeach performs better but needs MrPeach libs.
;
#X obj 343 176 karmaNotes;
#X obj 492 446 km_osc_format /aubio/attack;
#X obj 397 412 karmaMetronom;
#X text 53 554 Note: MrPeach not yet functionnal.;
#X connect 0 0 9 0;
#X connect 0 0 10 0;
#X connect 0 0 11 0;
#X connect 0 0 12 0;
#X connect 0 0 46 0;
#X connect 0 1 9 1;
#X connect 0 1 10 1;
#X connect 0 1 11 1;
#X connect 0 1 12 1;
#X connect 0 1 46 1;
#X connect 1 0 9 2;
#X connect 3 0 10 2;
#X connect 5 0 1 0;
#X connect 7 0 3 0;
#X connect 9 0 39 0;
#X connect 9 1 38 0;
#X connect 9 2 37 0;
#X connect 9 3 36 0;
#X connect 9 4 35 0;
#X connect 9 5 34 0;
#X connect 10 0 47 0;
#X connect 10 1 25 0;
#X connect 10 1 48 0;
#X connect 10 2 26 0;
#X connect 10 3 24 0;
#X connect 10 4 23 0;
#X connect 10 5 27 0;
#X connect 10 6 28 0;
#X connect 10 7 32 0;
#X connect 10 8 31 0;
#X connect 11 0 21 0;
#X connect 11 1 20 0;
#X connect 11 2 22 0;
#X connect 13 0 43 0;
#X connect 48 0 13 0;
#X connect 48 0 44 0;
#X connect 48 1 42 0;
#X connect 48 2 41 0;
#X connect 48 3 40 0;
