#N canvas 0 22 572 440 10;
#X obj 154 131 env~;
#X obj 327 132 env~;
#X text 167 39 :: BALANCE ::;
#X obj 154 153 dbtorms;
#X obj 327 154 dbtorms;
#X obj 154 109 inlet~ left;
#X obj 327 109 inlet~ right;
#X obj 327 356 outlet balance;
#X text 169 55 Calculates the difference between left and right channel
amplitude.;
#X obj 1 14 cnv 15 83 74 empty empty empty 20 12 0 14 -191407 -66577
0;
#X obj 17 30 vsl 10 40 0 1 0 0 empty \$0-b-right R 2 -9 0 10 -262144
-1 -1 323 1;
#X obj 4 30 vsl 10 40 0 1 0 0 empty \$0-b-left L 2 -9 0 10 -262144
-1 -1 330 1;
#X obj 36 62 hsl 40 10 -1 1 0 0 empty \$0-b-balance empty -2 -8 0 10
-262144 -1 -1 2119 1;
#X obj 166 179 s \$0-b-left;
#X obj 343 179 s \$0-b-right;
#X obj 336 309 s \$0-b-balance;
#X obj 327 334 change;
#X text 32 46 BALANCE;
#X obj 327 204 /;
#X obj 346 294 hsl 55 8 -1 1 0 0 empty empty empty -2 -8 0 10 -262144
-1 -1 2934 1;
#X obj 327 226 - 1;
#X text 1 74 L;
#X text 37 74 R;
#X text 74 74 B;
#X obj 154 203 outlet L_amp;
#X obj 235 203 outlet R_amp;
#X obj 327 254 km_resample_avg 50;
#X obj 327 277 km_smooth 10;
#X connect 0 0 3 0;
#X connect 1 0 4 0;
#X connect 3 0 13 0;
#X connect 3 0 18 1;
#X connect 3 0 24 0;
#X connect 4 0 14 0;
#X connect 4 0 18 0;
#X connect 4 0 25 0;
#X connect 5 0 0 0;
#X connect 6 0 1 0;
#X connect 16 0 7 0;
#X connect 18 0 20 0;
#X connect 20 0 26 0;
#X connect 26 0 27 0;
#X connect 27 0 19 0;
#X connect 27 0 15 0;
#X connect 27 0 16 0;
#X coords 0 -1 1 1 85 90 1 0 0;
