#N canvas 10 22 1299 682 10;
#X obj 47 180 adc~, f 5;
#X obj 716 487 loadbang;
#X text 707 461 OSC SERVER CONFIGURATION;
#X floatatom 1045 137 5 0 0 0 - - -, f 5;
#X floatatom 1044 158 5 0 0 0 - - -, f 5;
#X floatatom 1044 181 5 0 0 0 - - -, f 5;
#X floatatom 1044 202 5 0 0 0 - - -, f 5;
#X floatatom 1043 226 5 0 0 0 - - -, f 5;
#X floatatom 1043 247 5 0 0 0 - - -, f 5;
#X floatatom 1043 271 5 0 0 0 - - -, f 5;
#X floatatom 1043 292 5 0 0 0 - - -, f 5;
#X floatatom 1044 316 5 0 0 0 - - -, f 5;
#X floatatom 1045 337 5 0 0 0 - - -, f 5;
#X obj 1302 405 r silence;
#X obj 991 320 r fft5p;
#X obj 991 299 r fft5a;
#X obj 991 275 r fft4p;
#X obj 991 254 r fft4a;
#X obj 991 230 r fft3p;
#X obj 991 209 r fft3a;
#X obj 991 185 r fft2p;
#X obj 991 164 r fft2a;
#X obj 992 141 r fft1p;
#X obj 992 120 r fft1a;
#X text 459 38 - - - - - - - - - - - - - - - - - - - - - - - - - -
- - - -;
#X text 550 470 - - - - - - - - - - - - - - - - - - - - - - - - - -
;
#X text 819 38 - - - - - - - - - - - - - - - - - - - - - - - - - -
- - - -;
#X obj 1302 426 r fiddle_pitch;
#X obj 1302 448 r fiddle_attack;
#X obj 1302 469 r fiddle_amp;
#X obj 268 159 tgl 15 0 empty empty empty 17 7 0 10 -262144 -1 -1 1
1;
#X text 213 157 (on/off);
#X obj 1440 422 tgl 15 0 empty empty empty 17 7 0 10 -262144 -1 -1
0 1;
#X floatatom 1424 443 5 0 0 0 - - -, f 5;
#X obj 1302 514 r fiddle_raw_pitch;
#X floatatom 1424 531 5 0 0 0 - - -, f 5;
#X floatatom 1422 486 5 0 0 0 - - -, f 5;
#X floatatom 1423 508 5 0 0 0 - - -, f 5;
#X obj 1439 465 bng 15 250 50 0 empty empty empty 17 7 0 10 -262144
-1 -1;
#X obj 1693 465 + 1;
#X floatatom 1662 490 5 0 0 0 - - -, f 5;
#X obj 600 130 r aubio_pitch;
#X obj 600 153 r aubio_quiet;
#X obj 1302 491 r fiddle_raw_amp;
#X obj 369 163 tgl 15 0 empty empty empty 17 7 0 10 -262144 -1 -1 1
1;
#X text 388 162 (on/off);
#X obj 716 170 tgl 15 0 empty empty empty 17 7 0 10 -262144 -1 -1 0
1;
#X obj 600 200 r aubio_tempo_bis;
#X obj 718 217 bng 15 250 50 0 empty empty empty 17 7 0 10 -262144
-1 -1;
#X obj 600 246 r aubio_bpm;
#X floatatom 701 263 5 0 0 0 - - -, f 5;
#X obj 600 223 r aubio_tempo;
#X obj 718 240 bng 15 250 50 0 empty empty empty 17 7 0 10 -262144
-1 -1;
#X obj 600 269 r aubio_onset;
#X obj 718 286 bng 15 250 50 0 empty empty empty 17 7 0 10 -262144
-1 -1;
#X floatatom 700 308 5 0 0 0 - - -, f 5;
#X obj 599 291 r aubio_zcr;
#X text 458 49 All analysed data is routed to OSC messages in this
section;
#X text 598 102 :: LIB AUBIO ROUTING ::;
#X obj 206 142 loadbang;
#X msg 716 517 connect localhost 12000;
#X obj 552 600 tgl 15 0 empty empty empty 17 7 0 10 -262144 -1 -1 0
1;
#X obj 552 515 spigot;
#X text 573 599 UDP State;
#X text 146 177 FFT & MORE ANALYSIS;
#X obj 369 140 loadbang;
#X obj 607 513 spigot;
#X obj 640 446 tgl 15 0 empty empty empty 17 7 0 10 -262144 -1 -1 0
1;
#X obj 607 536 print;
#X floatatom 700 147 5 0 0 0 - - -, f 5;
#X text 658 445 Print Output to Console;
#X text 820 28 Todo: - http://forumnet.ircam.fr/product/antescofo/?lang=en
;
#X obj 600 177 r aubio_is_playing;
#X obj 717 194 tgl 15 0 empty empty empty 17 7 0 10 -262144 -1 -1 1
1;
#X text 666 598 Many OSC optimisation todo here \, frequency and packing
stuff. See resample.pd and sendmany-osc.pd;
#X text 184 42 Make sure to run this with;
#X obj 552 578 netsend -u -b;
#X text 310 187 LIB AUBIO ANALYSIS SECTION;
#X obj 552 620 s osc_status;
#X obj 552 487 r osc_out_raw;
#X obj 1662 465 i 0;
#X obj 1226 113 tgl 15 0 empty empty empty 17 7 0 10 -262144 -1 -1
0 1;
#X text 1174 111 Enabled;
#X obj 892 117 tgl 15 0 empty empty empty 17 7 0 10 -262144 -1 -1 1
1;
#X obj 1660 422 tgl 15 0 empty empty empty 17 7 0 10 -262144 -1 -1
1 1;
#X msg 716 537 connect 192.168.0.11 12000;
#X obj 892 71 loadbang;
#X obj 892 94 i 1;
#X obj 1226 67 loadbang;
#X obj 1226 89 i 0, f 4;
#X text 1258 90 Disabled by default;
#X text 1261 105 (Heavy CPU process);
#X obj 1660 379 loadbang;
#X obj 1660 400 i 1;
#X text 990 98 :: FIDDLE FFT ROUTING ::;
#X text 1301 383 :: FIDDLE :: [pitch \, attack \, silence \, amplitude]
ROUTING;
#X obj 599 313 r aubio_noisy;
#X obj 717 330 tgl 15 0 empty empty empty 17 7 0 10 -262144 -1 -1 0
1;
#X text 47 159 :: AUDIO SOURCE ::;
#X text 551 461 :: OSC ROUTING ::;
#X text 458 23 :: ROUTING ::;
#X obj 1097 137 km_osc_format /fft/1/a;
#X text 928 374 Listen for re-connection..;
#X obj 930 433 oscparse;
#X msg 930 392 listen 12001;
#X obj 930 412 netreceive -u -b 12001;
#X obj 990 476 bng 15 250 50 0 empty empty empty 17 7 0 10 -262144
-1 -1;
#X msg 716 560 disconnect;
#X msg 1126 395 listen 0;
#X obj 930 524 bng 15 250 50 0 empty empty empty 17 7 0 10 -262144
-1 -1;
#X obj 930 475 route km;
#X obj 930 454 list trim;
#X text 1012 476 Unrecognized command received;
#X text 1028 392 Disconnects -->;
#X obj 930 500 route reconnectKMSA;
#X obj 1062 500 route ping;
#X msg 1062 521 bang;
#X obj 1096 522 bng 15 250 50 0 empty empty empty 17 7 0 10 -262144
-1 -1;
#X obj 205 399 km_osc_format /balance;
#X obj 1097 158 km_osc_format /fft/1/p;
#X obj 1097 181 km_osc_format /fft/2/a;
#X obj 1096 202 km_osc_format /fft/2/p;
#X obj 1096 226 km_osc_format /fft/3/a;
#X obj 1095 247 km_osc_format /fft/3/p;
#X obj 1095 271 km_osc_format /fft/4/a;
#X obj 1094 292 km_osc_format /fft/4/p;
#X obj 1094 316 km_osc_format /fft/5/a;
#X obj 1093 337 km_osc_format /fft/5/p;
#X obj 1461 422 km_osc_format /silence;
#X obj 1462 443 km_osc_format /pitch;
#X obj 1461 465 km_osc_format /attack;
#X obj 1461 486 km_osc_format /amp;
#X obj 1462 508 km_osc_format /rawAmp;
#X obj 1464 531 km_osc_format /rawPitch;
#X obj 745 147 km_osc_format /aubio/pitch;
#X obj 745 170 km_osc_format /aubio/quiet;
#X obj 746 194 km_osc_format /aubio/playing;
#X obj 745 217 km_osc_format /aubio/tempoBis;
#X obj 745 240 km_osc_format /aubio/tempo;
#X obj 745 263 km_osc_format /aubio/bpm;
#X obj 745 286 km_osc_format /aubio/onSet;
#X obj 745 308 km_osc_format /aubio/zcr;
#X obj 745 330 km_osc_format /aubio/noisy;
#X obj 1062 543 km_osc_format /ping;
#X obj 205 197 karmaFiddle;
#X obj 312 212 karmaAubio;
#X obj 127 304 karmaBalance;
#X obj 27 303 karmaAudioOut;
#X obj 166 420 km_osc_format /balanceAmpR;
#X obj 127 441 km_osc_format /balanceAmpL;
#X obj 383 368 km_metronom;
#X obj 390 547 bng 15 250 50 0 empty empty empty 17 7 0 10 -262144
-1 -1;
#X obj 383 591 s metronomTickNum;
#X obj 390 568 s metronomTick;
#X obj 446 478 s metronomBPM;
#X obj 403 526 s metronomAccent;
#X obj 425 502 s metronomCycles;
#X text 183 74 Needs pd-Aubio 0.3 or later.;
#X text 183 58 Pd-Vanilla 0.47-1 64bit or later.;
#X obj 17 18 karmaDSP;
#X connect 0 0 144 0;
#X connect 0 0 145 0;
#X connect 0 0 146 0;
#X connect 0 0 147 0;
#X connect 0 1 144 1;
#X connect 0 1 145 1;
#X connect 0 1 146 1;
#X connect 0 1 147 1;
#X connect 1 0 60 0;
#X connect 13 0 32 0;
#X connect 13 0 128 0;
#X connect 14 0 12 0;
#X connect 14 0 127 0;
#X connect 15 0 11 0;
#X connect 15 0 126 0;
#X connect 16 0 10 0;
#X connect 16 0 125 0;
#X connect 17 0 9 0;
#X connect 17 0 124 0;
#X connect 18 0 8 0;
#X connect 18 0 123 0;
#X connect 19 0 7 0;
#X connect 19 0 122 0;
#X connect 20 0 6 0;
#X connect 20 0 121 0;
#X connect 21 0 5 0;
#X connect 21 0 120 0;
#X connect 22 0 4 0;
#X connect 22 0 119 0;
#X connect 23 0 3 0;
#X connect 27 0 33 0;
#X connect 27 0 129 0;
#X connect 28 0 38 0;
#X connect 28 0 80 0;
#X connect 28 0 130 0;
#X connect 29 0 36 0;
#X connect 29 0 131 0;
#X connect 30 0 144 2;
#X connect 34 0 35 0;
#X connect 34 0 133 0;
#X connect 39 0 80 1;
#X connect 41 0 69 0;
#X connect 41 0 134 0;
#X connect 42 0 46 0;
#X connect 42 0 135 0;
#X connect 43 0 37 0;
#X connect 43 0 132 0;
#X connect 44 0 145 2;
#X connect 47 0 48 0;
#X connect 47 0 137 0;
#X connect 49 0 50 0;
#X connect 49 0 139 0;
#X connect 51 0 52 0;
#X connect 51 0 138 0;
#X connect 53 0 54 0;
#X connect 53 0 140 0;
#X connect 56 0 55 0;
#X connect 56 0 141 0;
#X connect 59 0 30 0;
#X connect 60 0 76 0;
#X connect 61 0 62 1;
#X connect 61 0 78 0;
#X connect 62 0 76 0;
#X connect 65 0 44 0;
#X connect 66 0 68 0;
#X connect 67 0 66 1;
#X connect 72 0 73 0;
#X connect 72 0 136 0;
#X connect 76 0 61 0;
#X connect 79 0 66 0;
#X connect 79 0 62 0;
#X connect 80 0 39 0;
#X connect 80 0 40 0;
#X connect 81 0 101 1;
#X connect 81 0 119 1;
#X connect 81 0 120 1;
#X connect 81 0 121 1;
#X connect 81 0 122 1;
#X connect 81 0 123 1;
#X connect 81 0 124 1;
#X connect 81 0 125 1;
#X connect 81 0 126 1;
#X connect 81 0 127 1;
#X connect 83 0 134 1;
#X connect 83 0 135 1;
#X connect 83 0 136 1;
#X connect 83 0 137 1;
#X connect 83 0 138 1;
#X connect 83 0 139 1;
#X connect 83 0 140 1;
#X connect 83 0 141 1;
#X connect 83 0 142 1;
#X connect 84 0 128 1;
#X connect 84 0 129 1;
#X connect 84 0 130 1;
#X connect 84 0 131 1;
#X connect 84 0 132 1;
#X connect 84 0 133 1;
#X connect 85 0 76 0;
#X connect 86 0 87 0;
#X connect 87 0 83 0;
#X connect 88 0 89 0;
#X connect 89 0 81 0;
#X connect 92 0 93 0;
#X connect 93 0 84 0;
#X connect 96 0 97 0;
#X connect 96 0 142 0;
#X connect 103 0 111 0;
#X connect 104 0 105 0;
#X connect 105 0 103 0;
#X connect 107 0 76 0;
#X connect 108 0 105 0;
#X connect 110 0 114 0;
#X connect 110 0 115 0;
#X connect 110 1 106 0;
#X connect 111 0 110 0;
#X connect 114 0 109 0;
#X connect 114 0 60 0;
#X connect 115 0 116 0;
#X connect 115 0 117 0;
#X connect 116 0 143 0;
#X connect 145 1 150 0;
#X connect 146 0 149 0;
#X connect 146 1 148 0;
#X connect 146 2 118 0;
#X connect 150 0 151 0;
#X connect 150 0 152 0;
#X connect 150 1 155 0;
#X connect 150 2 156 0;
#X connect 150 3 154 0;
#X connect 151 0 153 0;
