#N canvas 477 134 562 491 10;
#X obj 178 437 dac~;
#X obj 106 348 *~ 1;
#X obj 199 349 *~ 1;
#X text 106 12 :: SOUND OUTPUT WITH VOLUME CONTROL ::;
#X obj 1 15 cnv 15 80 84 empty empty empty 20 12 0 14 -191407 -66577
0;
#X obj 220 103 r \$0-ao-onoff;
#X obj 220 253 f;
#X obj 235 144 r \$0-ao-pan;
#X obj 5 53 hsl 70 15 0 1 0 0 \$0-ao-volume \$0-ao-volume-set Volume
0 -8 0 10 -262144 -1 -1 1500 1;
#X obj 3 21 tgl 15 0 \$0-ao-onoff \$0-ao-onoff-set On_Off 20 7 0 10
-262144 -1 -1 1 1;
#X obj 6 86 hsl 55 10 -1 1 0 0 \$0-ao-pan \$0-ao-pan-set Pan_Balance
-2 -8 0 10 -262144 -1 -1 2700 1;
#X obj 220 279 * 1;
#X text 235 127 Pan;
#X obj 127 294 f;
#X obj 127 323 * 1;
#X obj 235 170 + 1;
#X obj 235 194 min 1;
#X obj 235 221 t b f;
#X obj 106 42 inlet~ audioL;
#X obj 199 70 inlet~ audioR;
#X text 249 280 RightVolumePanned;
#X text 4 293 LeftVolumePanned;
#X obj 366 67 loadbang;
#X text 366 48 Set defaults;
#X obj 66 86 bng 10 250 50 0 \$0-ao-pan-reset empty empty 17 7 0 10
-1 -262144 -262144;
#X obj 142 262 t b f;
#X obj 127 102 r \$0-ao-volume;
#X obj 142 239 min 1;
#X obj 142 216 abs;
#X obj 142 194 - 1;
#X obj 387 116 s \$0-ao-volume-set;
#X obj 378 92 i 1;
#X obj 366 190 i 0;
#X obj 366 214 s \$0-ao-pan-set;
#X obj 378 163 r \$0-ao-pan-reset;
#X obj 378 139 s \$0-ao-onoff-set;
#X obj 370 403 != 0;
#X obj 370 376 r \$0-ao-volume;
#X obj 370 430 s \$0-ao-onoff-set;
#X text 368 355 GUI logic;
#X connect 1 0 0 0;
#X connect 2 0 0 1;
#X connect 5 0 6 0;
#X connect 5 0 13 0;
#X connect 6 0 11 0;
#X connect 7 0 15 0;
#X connect 7 0 29 0;
#X connect 11 0 2 1;
#X connect 13 0 14 0;
#X connect 14 0 1 1;
#X connect 15 0 16 0;
#X connect 16 0 17 0;
#X connect 17 0 6 0;
#X connect 17 1 11 1;
#X connect 18 0 1 0;
#X connect 19 0 2 0;
#X connect 22 0 31 0;
#X connect 22 0 32 0;
#X connect 25 0 13 0;
#X connect 25 1 14 1;
#X connect 26 0 6 0;
#X connect 26 0 13 0;
#X connect 27 0 25 0;
#X connect 28 0 27 0;
#X connect 29 0 28 0;
#X connect 31 0 30 0;
#X connect 31 0 35 0;
#X connect 32 0 33 0;
#X connect 34 0 32 0;
#X connect 36 0 38 0;
#X connect 37 0 36 0;
#X coords 0 -1 1 1 80 100 1 0 0;
