#N canvas 72 22 1102 607 10;
#X obj 176 210 vsl 10 50 0 100 0 0 empty empty empty 0 -9 0 10 -262144
-1 -1 1662 1;
#X obj 334 221 vsl 10 120 0 100 0 0 empty empty empty 0 -9 0 10 -262144
-1 -1 3036 1;
#X obj 334 195 - 50;
#X floatatom 255 219 5 0 0 0 - - -, f 5;
#X obj 176 170 sigmund~ -npeak 7 pitch notes env tracks;
#X obj 176 80 inlet~ audioL;
#X obj 279 80 inlet~ audioR;
#X obj 413 212 route 6 5 4 3 2 1 0, f 40;
#X obj 12 24 cnv 15 82 60 empty empty Notes 12 8 0 12 -191407 -66577
0;
#X obj 12 41 vsl 8 40 0 1 0 0 empty fft_1 empty 0 -9 0 10 -1 -261681
-1 984 1;
#X obj 24 41 vsl 8 40 0 1 0 0 empty fft_2 empty 0 -9 0 10 -1 -261681
-1 823 1;
#X obj 36 41 vsl 8 40 0 1 0 0 empty fft_3 empty 0 -9 0 10 -3 -261681
-1 443 1;
#X obj 48 41 vsl 8 40 0 1 0 0 empty fft_4 empty 0 -9 0 10 -1 -261681
-1 1609 1;
#X obj 60 41 vsl 8 40 0 1 0 0 empty fft_5 empty 0 -9 0 10 -1 -261681
-1 328 1;
#X obj 72 41 vsl 8 40 0 1 0 0 empty fft_6 empty 0 -9 0 10 -1 -261681
-1 1961 1;
#X obj 84 41 vsl 8 40 0 1 0 0 empty fft_7 empty 0 -9 0 10 -1 -261681
-1 1106 1;
#X obj 18 412 i 2048;
#X text 26 393 FFT Amp scale;
#X obj 18 373 loadbang;
#X text 680 213 Each sine track: ID \, Freq (Hz) \, Amplitude \, Flag
;
#X obj 616 234 km_sin_track_osc 1;
#X text 545 137 Packs 7 detected notes;
#X text 543 156 Also adapts their value \, scale and resamples them.
;
#X obj 176 287 outlet pitch;
#X obj 255 262 outlet note;
#X obj 334 372 outlet amp;
#X obj 413 81 inlet on_off;
#X obj 413 431 outlet OSC_notes;
#X obj 413 277 km_sin_track_osc 7;
#X obj 446 256 km_sin_track_osc 6;
#X obj 480 234 km_sin_track_osc 5;
#X obj 514 300 km_sin_track_osc 4;
#X obj 582 256 km_sin_track_osc 2;
#X obj 548 278 km_sin_track_osc 3;
#X connect 0 0 23 0;
#X connect 1 0 25 0;
#X connect 2 0 1 0;
#X connect 3 0 24 0;
#X connect 4 0 0 0;
#X connect 4 1 3 0;
#X connect 4 2 2 0;
#X connect 4 3 7 0;
#X connect 5 0 4 0;
#X connect 6 0 4 0;
#X connect 7 0 28 0;
#X connect 7 1 29 0;
#X connect 7 2 30 0;
#X connect 7 3 31 0;
#X connect 7 4 33 0;
#X connect 7 5 32 0;
#X connect 7 6 20 0;
#X connect 18 0 16 0;
#X connect 20 0 27 0;
#X connect 28 0 27 0;
#X connect 29 0 27 0;
#X connect 30 0 27 0;
#X connect 31 0 27 0;
#X connect 32 0 27 0;
#X connect 33 0 27 0;
#X coords 0 -1 1 1 85 95 1 10 10;
