#N canvas 157 22 1060 661 10;
#X obj 41 216 bng 15 250 50 0 empty empty empty 17 7 0 10 -262144 -1
-1;
#X obj 462 174 aubiopitch~;
#X obj 462 221 nbx 5 14 -1e+37 1e+37 0 0 empty empty empty 0 -8 0 10
-262144 -1 -1 1 256;
#X obj 130 217 bng 15 50 10 0 empty empty empty 17 7 0 10 -262144 -1
-1;
#X obj 217 218 bng 15 250 50 0 empty empty empty 17 7 0 10 -262144
-1 -1;
#X obj 130 173 aubiotempo~ 0.5;
#X text 16 13 Uses lib Aubio to get several MIR information;
#X obj 238 64 inlet~ LeftAudio;
#X obj 350 64 inlet~ RightAudio;
#X obj 281 174 aubioquiet~;
#X obj 515 71 inlet on_off_switch;
#X obj 365 88 tgl 15 0 empty empty empty 17 7 0 10 -262144 -1 -1 1
1;
#X obj 41 292 s aubio_onset;
#X obj 130 292 s aubio_tempo;
#X obj 217 292 s aubio_tempo_bis;
#X obj 462 286 s aubio_pitch;
#X obj 716 174 aubiotss~;
#X obj 716 259 vsl 15 100 0 1 0 0 empty empty empty 0 -9 0 10 -262144
-1 -1 9900 1;
#X obj 716 198 env~;
#X obj 767 259 vsl 15 100 0 1 0 0 empty empty empty 0 -9 0 10 -262144
-1 -1 9900 1;
#X obj 767 199 env~;
#X obj 716 151 hsl 100 15 0 1 0 0 empty empty empty -2 -8 0 10 -262144
-1 -1 0 0;
#X floatatom 787 166 5 0 0 0 - - -, f 5;
#X text 713 133 Variation Threshold;
#X obj 577 176 aubiozcr~;
#X floatatom 577 338 5 0 0 0 - - -, f 5;
#X obj 577 466 s aubio_zcr;
#X obj 19 591 i 0;
#X text 19 503 Reset all values;
#X obj 29 545 bng 15 250 50 0 empty empty empty 17 7 0 10 -262144 -1
-1;
#X obj 29 565 delay 1000;
#X obj 517 103 s aubio-off;
#X obj 19 520 r aubio-off;
#X obj 19 618 s aubio_reset;
#X obj 836 225 r aubio_reset;
#X obj 471 197 r aubio_reset;
#X floatatom 577 399 5 0 0 0 - - -, f 5;
#X obj 543 415 -;
#X obj 543 437 abs;
#X obj 522 521 sqrt;
#X text 13 75 Treshold Tempo;
#X text 14 98 Treshold OnSet;
#X obj 591 378 r aubio_reset;
#X text 584 321 Zcr;
#X text 613 400 Smoothed;
#X obj 560 488 r aubio_reset;
#X obj 580 517 hsl 100 15 0 1 0 0 empty empty empty -2 -8 0 10 -262144
-1 -1 9900 1;
#X obj 580 538 hsl 100 15 0 1 0 0 empty empty empty -2 -8 0 10 -262144
-1 -1 9900 1;
#X obj 496 415 hsl 40 15 -0.1 0.1 0 0 empty empty empty -2 -8 0 10
-262144 -1 -1 0 1;
#X floatatom 154 78 5 0 0 0 - - -, f 5;
#X obj 107 78 hsl 40 15 0 4 0 0 empty empty empty -2 -8 0 10 -262144
-1 -1 0 1;
#X floatatom 154 98 5 0 0 0 - - -, f 5;
#X obj 107 99 hsl 40 15 0 2 0 0 empty empty empty -2 -8 0 10 -262144
-1 -1 0 1;
#X floatatom 506 434 5 0 0 0 - - -, f 5;
#X text 102 56 PARAMETERS;
#X text 491 398 Treshold;
#X obj 716 450 <;
#X obj 722 424 f 0.005;
#X obj 722 403 loadbang;
#X obj 816 397 -, f 2;
#X obj 577 420 * 5;
#X obj 478 454 -;
#X text 575 553 ZeroCross Variation;
#X obj 522 498 * 2;
#X obj 767 450 <;
#X obj 722 386 bng 15 250 50 0 empty empty empty 17 7 0 10 -262144
-1 -1;
#X obj 752 476 == 0;
#X obj 716 501 &;
#X obj 281 226 tgl 15 0 empty empty empty 17 7 0 10 -262144 -1 -1 0
1;
#X obj 742 531 tgl 15 0 empty empty empty 17 7 0 10 -262144 -1 -1 1
1;
#X obj 716 477 == 0;
#X text 761 530 isPlaying;
#X obj 716 575 s aubio_is_playing;
#X obj 816 443 sqrt;
#X text 827 487 (~Sound similarity indicator);
#X text 575 567 (~cymbal detection);
#X obj 435 13 aubio;
#X obj 41 171 aubioonset~;
#X obj 238 103 *~;
#X obj 350 110 *~;
#X obj 816 466 sqrt;
#X msg 41 244 bang;
#X msg 217 246 bang;
#X text 477 14 Loads Aubio lib on misconfigured Pd installations;
#X text 479 28 (reload sketch);
#X obj 764 501 bng 15 250 50 0 empty empty empty 17 7 0 10 -262144
-1 -1;
#X obj 577 358 km_smooth 10;
#X obj 816 420 km_smooth 30;
#X obj 478 476 km_smooth 3;
#X obj 142 451 s aubio_tempo_accent;
#X obj 205 427 s aubio_bpm;
#X obj 767 226 dbtorms;
#X text 709 96 Transients are new sounds and unstable ones;
#X text 710 116 Steady-state indicate continuous \, similar sounds
;
#X obj 716 225 dbtorms;
#X obj 819 505 hsl 128 15 0 1 0 0 empty empty empty -2 -8 0 10 -262144
-1 -1 5427 1;
#X obj 471 243 vsl 15 35 100 1200 0 0 empty empty empty 0 -9 0 10 -262144
-1 -1 0 1;
#X obj 344 196 i 1;
#X obj 281 196 i 0;
#X obj 281 246 == 0;
#X obj 281 269 s aubio_is_quiet;
#X obj 318 246 s aubio_is_playing;
#X obj 142 317 km_metronom;
#X connect 0 0 81 0;
#X connect 1 0 2 0;
#X connect 2 0 15 0;
#X connect 2 0 96 0;
#X connect 3 0 13 0;
#X connect 3 0 102 0;
#X connect 4 0 82 0;
#X connect 5 0 3 0;
#X connect 5 1 4 0;
#X connect 7 0 78 0;
#X connect 8 0 79 0;
#X connect 9 0 98 0;
#X connect 9 1 97 0;
#X connect 10 0 11 0;
#X connect 11 0 31 0;
#X connect 11 0 78 1;
#X connect 11 0 79 1;
#X connect 16 0 18 0;
#X connect 16 1 20 0;
#X connect 17 0 56 0;
#X connect 17 0 59 0;
#X connect 18 0 94 0;
#X connect 19 0 59 1;
#X connect 19 0 64 0;
#X connect 20 0 91 0;
#X connect 21 0 16 1;
#X connect 21 0 22 0;
#X connect 24 0 25 0;
#X connect 25 0 37 1;
#X connect 25 0 86 0;
#X connect 27 0 33 0;
#X connect 29 0 30 0;
#X connect 30 0 27 0;
#X connect 32 0 27 0;
#X connect 32 0 29 0;
#X connect 34 0 17 0;
#X connect 34 0 19 0;
#X connect 35 0 2 0;
#X connect 36 0 37 0;
#X connect 36 0 60 0;
#X connect 37 0 38 0;
#X connect 38 0 61 0;
#X connect 39 0 47 0;
#X connect 42 0 36 0;
#X connect 45 0 47 0;
#X connect 45 0 60 0;
#X connect 48 0 53 0;
#X connect 48 0 61 1;
#X connect 50 0 49 0;
#X connect 50 0 5 1;
#X connect 52 0 51 0;
#X connect 52 0 77 1;
#X connect 56 0 70 0;
#X connect 57 0 56 1;
#X connect 57 0 64 1;
#X connect 58 0 57 0;
#X connect 59 0 87 0;
#X connect 60 0 46 0;
#X connect 60 0 26 0;
#X connect 61 0 88 0;
#X connect 63 0 39 0;
#X connect 64 0 66 0;
#X connect 66 0 67 1;
#X connect 66 0 85 0;
#X connect 67 0 69 0;
#X connect 67 0 72 0;
#X connect 68 0 99 0;
#X connect 68 0 101 0;
#X connect 70 0 67 0;
#X connect 73 0 80 0;
#X connect 77 0 0 0;
#X connect 78 0 77 0;
#X connect 78 0 5 0;
#X connect 78 0 9 0;
#X connect 78 0 1 0;
#X connect 78 0 24 0;
#X connect 78 0 16 0;
#X connect 79 0 77 0;
#X connect 79 0 5 0;
#X connect 79 0 9 0;
#X connect 79 0 1 0;
#X connect 79 0 24 0;
#X connect 79 0 16 0;
#X connect 80 0 95 0;
#X connect 81 0 12 0;
#X connect 82 0 14 0;
#X connect 86 0 36 0;
#X connect 87 0 73 0;
#X connect 88 0 63 0;
#X connect 91 0 19 0;
#X connect 94 0 17 0;
#X connect 97 0 68 0;
#X connect 98 0 68 0;
#X connect 99 0 100 0;
#X connect 102 0 89 0;
#X connect 102 3 90 0;
