#N canvas 72 22 1299 682 10;
#X obj 422 62 adc~, f 5;
#X floatatom 921 166 5 0 0 0 - - -, f 5;
#X floatatom 920 187 5 0 0 0 - - -, f 5;
#X floatatom 920 210 5 0 0 0 - - -, f 5;
#X floatatom 920 231 5 0 0 0 - - -, f 5;
#X floatatom 919 255 5 0 0 0 - - -, f 5;
#X floatatom 919 276 5 0 0 0 - - -, f 5;
#X floatatom 919 300 5 0 0 0 - - -, f 5;
#X floatatom 919 321 5 0 0 0 - - -, f 5;
#X floatatom 920 345 5 0 0 0 - - -, f 5;
#X floatatom 921 366 5 0 0 0 - - -, f 5;
#X obj 785 486 r silence;
#X obj 867 349 r fft5p;
#X obj 867 328 r fft5a;
#X obj 867 304 r fft4p;
#X obj 867 283 r fft4a;
#X obj 867 259 r fft3p;
#X obj 867 238 r fft3a;
#X obj 867 214 r fft2p;
#X obj 867 193 r fft2a;
#X obj 868 170 r fft1p;
#X obj 868 149 r fft1a;
#X obj 785 507 r fiddle_pitch;
#X obj 785 529 r fiddle_attack;
#X obj 785 550 r fiddle_amp;
#X obj 922 41 tgl 15 0 empty empty empty 17 7 0 10 -262144 -1 -1 1
1;
#X text 867 39 (on/off);
#X obj 923 503 tgl 15 0 empty empty empty 17 7 0 10 -262144 -1 -1 0
1;
#X floatatom 907 524 5 0 0 0 - - -, f 5;
#X obj 785 595 r fiddle_raw_pitch;
#X floatatom 907 612 5 0 0 0 - - -, f 5;
#X floatatom 905 567 5 0 0 0 - - -, f 5;
#X floatatom 906 589 5 0 0 0 - - -, f 5;
#X obj 922 546 bng 15 250 50 0 empty empty empty 17 7 0 10 -262144
-1 -1;
#X obj 1176 546 + 1;
#X floatatom 1145 571 5 0 0 0 - - -, f 5;
#X obj 785 572 r fiddle_raw_amp;
#X obj 665 126 tgl 15 0 empty empty empty 17 7 0 10 -262144 -1 -1 1
1;
#X text 684 125 (on/off);
#X obj 860 24 loadbang;
#X text 800 59 FFT & MORE ANALYSIS;
#X obj 665 103 loadbang;
#X obj 1145 546 i 0;
#X obj 1102 142 tgl 15 0 empty empty empty 17 7 0 10 -262144 -1 -1
0 1;
#X text 1050 140 Enabled;
#X obj 1143 503 tgl 15 0 empty empty empty 17 7 0 10 -262144 -1 -1
1 1;
#X obj 1102 96 loadbang;
#X obj 1102 118 i 0, f 4;
#X text 1134 119 Disabled by default;
#X text 1137 134 (Heavy CPU process);
#X obj 1143 460 loadbang;
#X obj 1143 481 i 1;
#X text 866 127 :: FIDDLE FFT ROUTING ::;
#X text 784 464 :: FIDDLE :: [pitch \, attack \, silence \, amplitude]
ROUTING;
#X text 422 41 :: AUDIO SOURCE ::;
#X obj 973 166 km_osc_format /fft/1/a;
#X obj 973 187 km_osc_format /fft/1/p;
#X obj 973 210 km_osc_format /fft/2/a;
#X obj 972 231 km_osc_format /fft/2/p;
#X obj 972 255 km_osc_format /fft/3/a;
#X obj 971 276 km_osc_format /fft/3/p;
#X obj 971 300 km_osc_format /fft/4/a;
#X obj 970 321 km_osc_format /fft/4/p;
#X obj 970 345 km_osc_format /fft/5/a;
#X obj 969 366 km_osc_format /fft/5/p;
#X obj 944 503 km_osc_format /silence;
#X obj 945 524 km_osc_format /pitch;
#X obj 944 546 km_osc_format /attack;
#X obj 944 567 km_osc_format /amp;
#X obj 945 589 km_osc_format /rawAmp;
#X obj 947 612 km_osc_format /rawPitch;
#X obj 859 79 karmaFiddle;
#X obj 422 152 karmaAubio;
#X obj 52 182 karmaBalance;
#X obj 195 172 karmaAudioOut;
#X obj 317 172 km_metronom;
#X obj 324 351 bng 15 250 50 0 empty empty empty 17 7 0 10 -262144
-1 -1;
#X obj 54 112 karmaDSP;
#X obj 54 20 cnv 15 220 80 empty empty empty 20 12 0 14 -191407 -66577
0;
#X text 65 45 Make sure to run this with;
#X text 64 77 Needs pd-Aubio 0.3 or later.;
#X text 64 27 :: karmaSoundAnalyser ::;
#X text 64 61 Pd-Vanilla 0.47-0-64bit or later.;
#X obj 91 298 km_osc_format /balance/ampR;
#X obj 52 319 km_osc_format /balance/ampL;
#X obj 130 277 km_osc_format /balance/pan;
#X obj 324 372 s metronom/tick;
#X obj 317 394 s metronom/tickNum;
#X obj 337 330 s metronom/accent;
#X obj 359 306 s metronom/cycles;
#X obj 380 282 s metronom/BPM;
#X obj 543 358 km_osc_format /aubio/isQuiet;
#X obj 513 380 km_osc_format /aubio/isPlaying;
#X obj 452 424 km_osc_format /aubio/tempo;
#X obj 482 402 km_osc_format /aubio/tempoAlt;
#X obj 573 337 km_osc_format /aubio/pitch;
#X obj 604 316 km_osc_format /aubio/zcr;
#X obj 52 394 karmaOSCNative;
#X text 54 521 Use either [karmaOSCNative] or [karmaOSCMrPeach];
#X obj 422 446 km_osc_format /aubio/attack;
#X obj 665 276 km_osc_format /aubio/steadyState;
#X obj 634 296 km_osc_format /aubio/transients;
#X connect 0 0 71 0;
#X connect 0 0 72 0;
#X connect 0 0 73 0;
#X connect 0 0 74 0;
#X connect 0 1 71 1;
#X connect 0 1 72 1;
#X connect 0 1 73 1;
#X connect 0 1 74 1;
#X connect 11 0 27 0;
#X connect 11 0 65 0;
#X connect 12 0 10 0;
#X connect 12 0 64 0;
#X connect 13 0 9 0;
#X connect 13 0 63 0;
#X connect 14 0 8 0;
#X connect 14 0 62 0;
#X connect 15 0 7 0;
#X connect 15 0 61 0;
#X connect 16 0 6 0;
#X connect 16 0 60 0;
#X connect 17 0 5 0;
#X connect 17 0 59 0;
#X connect 18 0 4 0;
#X connect 18 0 58 0;
#X connect 19 0 3 0;
#X connect 19 0 57 0;
#X connect 20 0 2 0;
#X connect 20 0 56 0;
#X connect 21 0 1 0;
#X connect 22 0 28 0;
#X connect 22 0 66 0;
#X connect 23 0 33 0;
#X connect 23 0 42 0;
#X connect 23 0 67 0;
#X connect 24 0 31 0;
#X connect 24 0 68 0;
#X connect 25 0 71 2;
#X connect 29 0 30 0;
#X connect 29 0 70 0;
#X connect 34 0 42 1;
#X connect 36 0 32 0;
#X connect 36 0 69 0;
#X connect 37 0 72 2;
#X connect 39 0 25 0;
#X connect 41 0 37 0;
#X connect 42 0 34 0;
#X connect 42 0 35 0;
#X connect 43 0 55 1;
#X connect 43 0 56 1;
#X connect 43 0 57 1;
#X connect 43 0 58 1;
#X connect 43 0 59 1;
#X connect 43 0 60 1;
#X connect 43 0 61 1;
#X connect 43 0 62 1;
#X connect 43 0 63 1;
#X connect 43 0 64 1;
#X connect 45 0 65 1;
#X connect 45 0 66 1;
#X connect 45 0 67 1;
#X connect 45 0 68 1;
#X connect 45 0 69 1;
#X connect 45 0 70 1;
#X connect 46 0 47 0;
#X connect 47 0 43 0;
#X connect 50 0 51 0;
#X connect 51 0 45 0;
#X connect 72 0 99 0;
#X connect 72 1 75 0;
#X connect 72 1 93 0;
#X connect 72 2 94 0;
#X connect 72 3 92 0;
#X connect 72 4 91 0;
#X connect 72 5 95 0;
#X connect 72 6 96 0;
#X connect 72 7 101 0;
#X connect 72 8 100 0;
#X connect 73 0 84 0;
#X connect 73 1 83 0;
#X connect 73 2 85 0;
#X connect 75 0 76 0;
#X connect 75 0 87 0;
#X connect 75 1 88 0;
#X connect 75 2 89 0;
#X connect 75 3 90 0;
#X connect 76 0 86 0;
