#N canvas 275 106 351 252 10;
#X msg 93 109 \; pd dsp 1;
#X msg 26 110 \; pd dsp 0;
#X text 79 40 Turn On/Off Pd.DSP;
#X obj 1 14 cnv 15 58 25 empty empty empty 20 12 0 14 -191407 -66577
0;
#X obj 5 17 tgl 20 0 empty empty DSP 25 9 0 14 -262144 -1 -1 1 1;
#X obj 1 48 sel 0 1;
#X text 80 19 :: karmaDSP ::;
#X text 77 55 aka. Audio processing;
#X connect 4 0 5 0;
#X connect 5 0 1 0;
#X connect 5 1 0 0;
#X coords 0 -1 1 1 60 40 1 0 0;
