#N canvas 0 22 424 257 10;
#X obj 36 41 inlet;
#X obj 36 99 i 0;
#X obj 68 100 + 1;
#X obj 68 125 mod 2;
#X obj 36 151 route 1, f 8;
#X obj 36 175 bng 15 250 50 0 empty empty empty 17 7 0 10 -262144 -1
-1;
#X obj 81 176 bng 15 250 50 0 empty empty empty 17 7 0 10 -262144 -1
-1;
#X obj 36 202 outlet;
#X obj 81 202 outlet;
#X obj 36 71 t b;
#X text 36 14 Simple abstraction to alternate bangs between 2 outlets
;
#X connect 0 0 9 0;
#X connect 1 0 2 0;
#X connect 1 0 4 0;
#X connect 2 0 3 0;
#X connect 3 0 1 1;
#X connect 4 0 5 0;
#X connect 4 1 6 0;
#X connect 5 0 7 0;
#X connect 6 0 8 0;
#X connect 9 0 1 0;
