#N canvas 191 178 721 420 10;
#X text 125 16 METRONOM;
#X text 124 45 To do: set the timing of thack rather then default.
;
#X obj 129 82 inlet attack_bang;
#X text 124 31 Track a bang event (attack/beats).;
#X obj 129 109 bng 15 250 50 0 empty empty empty 17 7 0 10 -262144
-1 -1;
#X obj 155 132 + 1;
#X floatatom 515 107 5 0 0 0 - - -, f 5;
#X obj 560 152 i \$0;
#X obj 515 175 pack f f;
#X obj 560 128 loadbang;
#X msg 515 199 \; \$2-metronom-radio number \$1;
#X text 516 233 Sets timings of metronom;
#X text 551 107 Metronom accent;
#X obj 515 84 loadbang;
#X obj 129 346 outlet metronom;
#X obj 235 346 outlet accent;
#X obj 235 191 == 0;
#X obj 129 159 mod 4;
#X obj 392 181 timer;
#X obj 392 156 t b b;
#X obj 392 202 sel 0;
#X obj 419 346 outlet bpm;
#X obj 419 282 km_smooth 50;
#X obj 419 261 expr (1000.0/$i1)*60;
#X obj 129 132 i 0;
#X obj 325 215 sel 1;
#X obj 325 235 bng 15 250 50 0 empty empty empty 17 7 0 10 -262144
-1 -1;
#X obj 325 346 outlet cycles;
#X obj 515 124 min 1;
#X obj 325 295 div 4;
#X obj 325 267 i;
#X obj 0 14 cnv 15 70 84 empty empty empty 20 12 0 14 -191407 -66577
0;
#X obj 4 30 hradio 15 1 0 4 empty \$0-metronom-radio empty 0 -8 0 10
-262144 -1 -1 3;
#X obj 4 50 tgl 30 0 empty \$0-m-accent empty 17 7 0 10 -262144 -1
-1 0 1;
#X text 40 50 BPM;
#X floatatom 42 65 4 0 0 0 - #0-m-bpm -, f 4;
#X text 13 14 METRONOM;
#X floatatom 42 82 4 0 0 0 Cycles #0-m-cycles -, f 4;
#X obj 228 258 s \$0-m-accent;
#X obj 331 318 s \$0-m-cycles;
#X obj 104 258 s \$0-metronom-radio;
#X obj 427 324 s \$0-m-bpm;
#X obj 427 303 i 0;
#X connect 2 0 4 0;
#X connect 4 0 19 0;
#X connect 4 0 24 0;
#X connect 5 0 24 1;
#X connect 6 0 28 0;
#X connect 7 0 8 1;
#X connect 8 0 10 0;
#X connect 9 0 7 0;
#X connect 13 0 6 0;
#X connect 16 0 25 0;
#X connect 16 0 15 0;
#X connect 16 0 38 0;
#X connect 17 0 16 0;
#X connect 17 0 14 0;
#X connect 17 0 40 0;
#X connect 18 0 20 0;
#X connect 19 0 18 0;
#X connect 19 1 18 1;
#X connect 20 1 23 0;
#X connect 22 0 42 0;
#X connect 22 0 21 0;
#X connect 23 0 22 0;
#X connect 24 0 5 0;
#X connect 24 0 17 0;
#X connect 24 0 30 1;
#X connect 25 0 26 0;
#X connect 26 0 30 0;
#X connect 28 0 17 1;
#X connect 28 0 8 0;
#X connect 28 0 29 1;
#X connect 29 0 27 0;
#X connect 29 0 39 0;
#X connect 30 0 29 0;
#X connect 42 0 41 0;
#X coords 0 -1 1 1 70 100 1 0 0;
